<svg width="209" height="218" viewBox="0 0 209 218" fill="none" xmlns="http://www.w3.org/2000/svg">
<rect width="209" height="218" fill="black"/>
<rect x="52" y="57" width="105" height="105" rx="7" fill="white"/>
<path d="M86.08 137V129.56C89.4933 126.733 92.8 123.933 96 121.16C99.2533 118.387 102.133 115.64 104.64 112.92C107.2 110.2 109.227 107.56 110.72 105C112.267 102.387 113.04 99.8533 113.04 97.4C113.04 95.1067 112.4 93.08 111.12 91.32C109.893 89.56 107.84 88.68 104.96 88.68C102.027 88.68 99.8133 89.64 98.32 91.56C96.8267 93.48 96.08 95.8 96.08 98.52H86.16C86.2667 94.4133 87.1733 91 88.88 88.28C90.5867 85.5067 92.8533 83.4533 95.68 82.12C98.5067 80.7333 101.68 80.04 105.2 80.04C110.907 80.04 115.333 81.6133 118.48 84.76C121.68 87.8533 123.28 91.88 123.28 96.84C123.28 99.9333 122.56 102.947 121.12 105.88C119.733 108.813 117.893 111.64 115.6 114.36C113.307 117.08 110.827 119.64 108.16 122.04C105.493 124.387 102.907 126.573 100.4 128.6H124.64V137H86.08Z" fill="black"/>
</svg>
