<svg width="564" height="394" viewBox="0 0 564 394" fill="none" xmlns="http://www.w3.org/2000/svg">
<rect width="564" height="394" fill="black"/>
<path d="M251.44 251.728C241.264 251.728 232.528 249.568 225.232 245.248C217.936 240.832 212.32 234.736 208.384 226.96C204.448 219.088 202.48 210.016 202.48 199.744C202.48 189.472 204.448 180.4 208.384 172.528C212.32 164.656 217.936 158.512 225.232 154.096C232.528 149.68 241.264 147.472 251.44 147.472C263.536 147.472 273.424 150.496 281.104 156.544C288.88 162.496 293.728 170.896 295.648 181.744H275.344C274.096 176.272 271.408 172 267.28 168.928C263.248 165.76 257.872 164.176 251.152 164.176C241.84 164.176 234.544 167.344 229.264 173.68C223.984 180.016 221.344 188.704 221.344 199.744C221.344 210.784 223.984 219.472 229.264 225.808C234.544 232.048 241.84 235.168 251.152 235.168C257.872 235.168 263.248 233.728 267.28 230.848C271.408 227.872 274.096 223.792 275.344 218.608H295.648C293.728 228.976 288.88 237.088 281.104 242.944C273.424 248.8 263.536 251.728 251.44 251.728ZM359.196 251.728C349.116 251.728 340.284 249.52 332.7 245.104C325.212 240.688 319.308 234.592 314.988 226.816C310.764 218.944 308.652 209.872 308.652 199.6C308.652 189.328 310.764 180.304 314.988 172.528C319.308 164.656 325.212 158.512 332.7 154.096C340.284 149.68 349.116 147.472 359.196 147.472C369.18 147.472 377.964 149.68 385.548 154.096C393.132 158.512 399.036 164.656 403.26 172.528C407.484 180.304 409.596 189.328 409.596 199.6C409.596 209.872 407.484 218.944 403.26 226.816C399.036 234.592 393.132 240.688 385.548 245.104C377.964 249.52 369.18 251.728 359.196 251.728ZM359.196 235.168C368.796 235.168 376.428 232 382.092 225.664C387.852 219.328 390.732 210.64 390.732 199.6C390.732 188.56 387.852 179.872 382.092 173.536C376.428 167.2 368.796 164.032 359.196 164.032C349.596 164.032 341.916 167.2 336.156 173.536C330.396 179.872 327.516 188.56 327.516 199.6C327.516 210.64 330.396 219.328 336.156 225.664C341.916 232 349.596 235.168 359.196 235.168ZM425.87 250V149.2H444.302V189.952L481.598 149.2H504.35L467.198 189.232L505.358 250H482.75L453.95 203.344L444.302 213.856V250H425.87Z" fill="white"/>
<rect x="91" y="145" width="105" height="105" rx="7" fill="white"/>
<path d="M124.08 225V217.56C127.493 214.733 130.8 211.933 134 209.16C137.253 206.387 140.133 203.64 142.64 200.92C145.2 198.2 147.227 195.56 148.72 193C150.267 190.387 151.04 187.853 151.04 185.4C151.04 183.107 150.4 181.08 149.12 179.32C147.893 177.56 145.84 176.68 142.96 176.68C140.027 176.68 137.813 177.64 136.32 179.56C134.827 181.48 134.08 183.8 134.08 186.52H124.16C124.267 182.413 125.173 179 126.88 176.28C128.587 173.507 130.853 171.453 133.68 170.12C136.507 168.733 139.68 168.04 143.2 168.04C148.907 168.04 153.333 169.613 156.48 172.76C159.68 175.853 161.28 179.88 161.28 184.84C161.28 187.933 160.56 190.947 159.12 193.88C157.733 196.813 155.893 199.64 153.6 202.36C151.307 205.08 148.827 207.64 146.16 210.04C143.493 212.387 140.907 214.573 138.4 216.6H162.64V225H124.08Z" fill="black"/>
</svg>
